<svg width="39" height="39" viewBox="0 0 39 39" fill="none" xmlns="http://www.w3.org/2000/svg">
<path d="M30.875 20.7188H8.125C7.80177 20.7188 7.49177 20.5904 7.26321 20.3617C7.03466 20.1333 6.90625 19.8232 6.90625 19.5C6.90625 19.1768 7.03466 18.8667 7.26321 18.6383C7.49177 18.4096 7.80177 18.2812 8.125 18.2812H30.875C31.1982 18.2812 31.5083 18.4096 31.7367 18.6383C31.9654 18.8667 32.0937 19.1768 32.0937 19.5C32.0937 19.8232 31.9654 20.1333 31.7367 20.3617C31.5083 20.5904 31.1982 20.7188 30.875 20.7188Z" fill="white"/>
<path d="M30.875 13.4062H8.125C7.80177 13.4062 7.49177 13.2778 7.26321 13.0493C7.03466 12.8207 6.90625 12.5107 6.90625 12.1875C6.90625 11.8643 7.03466 11.5543 7.26321 11.3257C7.49177 11.0972 7.80177 10.9688 8.125 10.9688H30.875C31.1982 10.9688 31.5083 11.0972 31.7367 11.3257C31.9654 11.5543 32.0937 11.8643 32.0937 12.1875C32.0937 12.5107 31.9654 12.8207 31.7367 13.0493C31.5083 13.2778 31.1982 13.4062 30.875 13.4062Z" fill="white"/>
<path d="M30.875 28.0312H8.125C7.80177 28.0312 7.49177 27.9029 7.26321 27.6742C7.03466 27.4458 6.90625 27.1357 6.90625 26.8125C6.90625 26.4893 7.03466 26.1792 7.26321 25.9508C7.49177 25.7221 7.80177 25.5938 8.125 25.5938H30.875C31.1982 25.5938 31.5083 25.7221 31.7367 25.9508C31.9654 26.1792 32.0937 26.4893 32.0937 26.8125C32.0937 27.1357 31.9654 27.4458 31.7367 27.6742C31.5083 27.9029 31.1982 28.0312 30.875 28.0312Z" fill="white"/>
</svg>
