<svg width="136" height="21" viewBox="0 0 136 21" fill="none" xmlns="http://www.w3.org/2000/svg">
<path d="M0.313636 2.34318V0.218181H15.15V2.34318H8.92955V20H6.53409V2.34318H0.313636ZM20.8851 20.3477C19.9449 20.3477 19.0917 20.1706 18.3254 19.8165C17.5591 19.4559 16.9506 18.9375 16.4999 18.2614C16.0491 17.5788 15.8237 16.7545 15.8237 15.7886C15.8237 14.9386 15.9911 14.2496 16.326 13.7216C16.6608 13.1871 17.1084 12.7686 17.6686 12.4659C18.2288 12.1633 18.847 11.9379 19.5232 11.7898C20.2057 11.6352 20.8915 11.5129 21.5805 11.4227C22.4821 11.3068 23.2129 11.2199 23.7732 11.1619C24.3398 11.0975 24.7519 10.9913 25.0095 10.8432C25.2735 10.6951 25.4055 10.4375 25.4055 10.0705V9.99318C25.4055 9.04015 25.1447 8.29962 24.6232 7.77159C24.108 7.24356 23.3256 6.97954 22.276 6.97954C21.1877 6.97954 20.3345 7.2178 19.7163 7.69432C19.0982 8.17083 18.6635 8.67954 18.4124 9.22045L16.2487 8.44773C16.6351 7.54621 17.1502 6.84432 17.7942 6.34204C18.4446 5.83333 19.1529 5.47917 19.9192 5.27954C20.6919 5.07348 21.4518 4.97045 22.1987 4.97045C22.6752 4.97045 23.2226 5.02841 23.8408 5.14432C24.4654 5.25379 25.0675 5.48238 25.647 5.83011C26.233 6.17784 26.7192 6.70265 27.1055 7.40454C27.4919 8.10644 27.6851 9.04659 27.6851 10.225V20H25.4055V17.9909H25.2896C25.1351 18.3129 24.8775 18.6574 24.5169 19.0244C24.1563 19.3915 23.6766 19.7038 23.0777 19.9614C22.4788 20.2189 21.748 20.3477 20.8851 20.3477ZM21.2328 18.3C22.1343 18.3 22.8942 18.1229 23.5124 17.7687C24.137 17.4146 24.6071 16.9574 24.9226 16.3972C25.2446 15.8369 25.4055 15.2477 25.4055 14.6295V12.5432C25.3089 12.6591 25.0964 12.7653 24.768 12.8619C24.4461 12.9521 24.0726 13.0326 23.6476 13.1034C23.229 13.1678 22.8201 13.2258 22.4209 13.2773C22.0281 13.3223 21.7093 13.361 21.4646 13.3932C20.8722 13.4705 20.3184 13.596 19.8033 13.7699C19.2946 13.9373 18.8824 14.1917 18.5669 14.533C18.2578 14.8678 18.1033 15.325 18.1033 15.9045C18.1033 16.6966 18.3963 17.2955 18.9822 17.7011C19.5747 18.1004 20.3249 18.3 21.2328 18.3ZM33.9707 14.5909L33.9321 11.7705H34.3957L40.8867 5.16364H43.7071L36.7912 12.1568H36.598L33.9707 14.5909ZM31.8457 20V0.218181H34.1253V20H31.8457ZM41.273 20L35.4776 12.6591L37.1003 11.075L44.1707 20H41.273ZM52.2506 20.3091C50.821 20.3091 49.5879 19.9936 48.5511 19.3625C47.5208 18.725 46.7256 17.8364 46.1653 16.6966C45.6116 15.5504 45.3347 14.2174 45.3347 12.6977C45.3347 11.178 45.6116 9.83864 46.1653 8.67954C46.7256 7.51401 47.5047 6.60606 48.5028 5.95568C49.5074 5.29886 50.6794 4.97045 52.0188 4.97045C52.7915 4.97045 53.5545 5.09924 54.308 5.35682C55.0614 5.61439 55.7472 6.03295 56.3653 6.6125C56.9835 7.18561 57.4761 7.94545 57.8432 8.89204C58.2102 9.83864 58.3938 11.0042 58.3938 12.3886V13.3545H46.9574V11.3841H56.0756C56.0756 10.547 55.9081 9.8 55.5733 9.14318C55.2449 8.48636 54.7748 7.96799 54.1631 7.58807C53.5578 7.20814 52.843 7.01818 52.0188 7.01818C51.1108 7.01818 50.3252 7.24356 49.6619 7.69432C49.0051 8.13864 48.4996 8.71818 48.1455 9.43295C47.7913 10.1477 47.6142 10.914 47.6142 11.7318V13.0455C47.6142 14.1659 47.8074 15.1157 48.1938 15.8949C48.5866 16.6676 49.1307 17.2568 49.8261 17.6625C50.5216 18.0617 51.3297 18.2614 52.2506 18.2614C52.8494 18.2614 53.3903 18.1777 53.8733 18.0102C54.3627 17.8364 54.7845 17.5788 55.1386 17.2375C55.4928 16.8898 55.7665 16.4583 55.9597 15.9432L58.1619 16.5614C57.9301 17.3083 57.5405 17.9652 56.9932 18.5318C56.4458 19.092 55.7697 19.5299 54.9648 19.8455C54.1599 20.1545 53.2551 20.3091 52.2506 20.3091Z" fill="white"/>
<path d="M77.9148 0.218181V20H75.1716L65.1165 5.49204H64.933V20H61.9483V0.218181H64.7108L74.7756 14.7455H74.9591V0.218181H77.9148ZM88.2862 20.2994C86.8953 20.2994 85.6815 19.9807 84.6447 19.3432C83.608 18.7057 82.8031 17.8138 82.23 16.6676C81.6569 15.5214 81.3703 14.182 81.3703 12.6494C81.3703 11.1104 81.6569 9.76458 82.23 8.61193C82.8031 7.45928 83.608 6.5642 84.6447 5.9267C85.6815 5.2892 86.8953 4.97045 88.2862 4.97045C89.6771 4.97045 90.891 5.2892 91.9277 5.9267C92.9644 6.5642 93.7694 7.45928 94.3425 8.61193C94.9156 9.76458 95.2021 11.1104 95.2021 12.6494C95.2021 14.182 94.9156 15.5214 94.3425 16.6676C93.7694 17.8138 92.9644 18.7057 91.9277 19.3432C90.891 19.9807 89.6771 20.2994 88.2862 20.2994ZM88.2959 17.875C89.1974 17.875 89.9444 17.6367 90.5368 17.1602C91.1292 16.6837 91.5671 16.0494 91.8504 15.2574C92.1402 14.4653 92.2851 13.5928 92.2851 12.6398C92.2851 11.6932 92.1402 10.8239 91.8504 10.0318C91.5671 9.23333 91.1292 8.59261 90.5368 8.10966C89.9444 7.6267 89.1974 7.38523 88.2959 7.38523C87.3879 7.38523 86.6345 7.6267 86.0357 8.10966C85.4432 8.59261 85.0021 9.23333 84.7124 10.0318C84.429 10.8239 84.2874 11.6932 84.2874 12.6398C84.2874 13.5928 84.429 14.4653 84.7124 15.2574C85.0021 16.0494 85.4432 16.6837 86.0357 17.1602C86.6345 17.6367 87.3879 17.875 88.2959 17.875ZM105.351 5.16364V7.48182H97.2474V5.16364H105.351ZM99.4207 1.60909H102.309V15.6437C102.309 16.204 102.393 16.6258 102.56 16.9091C102.727 17.186 102.943 17.3759 103.207 17.479C103.478 17.5756 103.771 17.6239 104.086 17.6239C104.318 17.6239 104.521 17.6078 104.695 17.5756C104.868 17.5434 105.004 17.5176 105.1 17.4983L105.622 19.8841C105.454 19.9485 105.216 20.0129 104.907 20.0773C104.598 20.1481 104.212 20.1867 103.748 20.1932C102.988 20.2061 102.28 20.0708 101.623 19.7875C100.966 19.5042 100.435 19.0663 100.029 18.4739C99.6236 17.8814 99.4207 17.1377 99.4207 16.2426V1.60909ZM114.781 20.2994C113.319 20.2994 112.06 19.9871 111.004 19.3625C109.955 18.7314 109.143 17.846 108.57 16.7062C108.004 15.56 107.72 14.2174 107.72 12.6784C107.72 11.1587 108.004 9.81932 108.57 8.66023C109.143 7.50114 109.942 6.5964 110.966 5.94602C111.996 5.29564 113.2 4.97045 114.578 4.97045C115.415 4.97045 116.227 5.1089 117.012 5.38579C117.798 5.66269 118.503 6.09735 119.128 6.68977C119.752 7.2822 120.245 8.0517 120.606 8.99829C120.966 9.93845 121.146 11.0814 121.146 12.4273V13.4511H109.353V11.2875H118.316C118.316 10.5277 118.162 9.85473 117.853 9.26875C117.544 8.67633 117.109 8.20947 116.549 7.86818C115.995 7.52689 115.345 7.35625 114.598 7.35625C113.786 7.35625 113.078 7.55587 112.473 7.95511C111.874 8.34792 111.41 8.86307 111.082 9.50057C110.76 10.1316 110.599 10.8174 110.599 11.558V13.2483C110.599 14.24 110.773 15.0835 111.12 15.779C111.474 16.4744 111.967 17.0057 112.598 17.3727C113.229 17.7333 113.967 17.9136 114.81 17.9136C115.357 17.9136 115.856 17.8364 116.307 17.6818C116.758 17.5208 117.148 17.2826 117.476 16.967C117.804 16.6515 118.056 16.2619 118.229 15.7983L120.963 16.2909C120.744 17.0958 120.351 17.8009 119.785 18.4062C119.224 19.0051 118.519 19.472 117.669 19.8068C116.826 20.1352 115.863 20.2994 114.781 20.2994ZM135.468 8.78579L132.851 9.24943C132.741 8.91458 132.568 8.59583 132.329 8.29318C132.097 7.99053 131.782 7.74261 131.383 7.54943C130.983 7.35625 130.484 7.25966 129.886 7.25966C129.068 7.25966 128.385 7.44318 127.838 7.81023C127.29 8.17083 127.017 8.63769 127.017 9.2108C127.017 9.70663 127.2 10.1059 127.567 10.4085C127.934 10.7112 128.527 10.9591 129.345 11.1523L131.701 11.6932C133.067 12.0087 134.084 12.4949 134.754 13.1517C135.423 13.8085 135.758 14.6617 135.758 15.7114C135.758 16.6 135.501 17.392 134.986 18.0875C134.477 18.7765 133.765 19.3174 132.851 19.7102C131.943 20.103 130.89 20.2994 129.692 20.2994C128.031 20.2994 126.675 19.9453 125.626 19.2369C124.576 18.5222 123.932 17.508 123.694 16.1943L126.486 15.7693C126.659 16.497 127.017 17.0475 127.558 17.421C128.099 17.7881 128.804 17.9716 129.673 17.9716C130.62 17.9716 131.376 17.7752 131.943 17.3824C132.51 16.9831 132.793 16.497 132.793 15.9239C132.793 15.4602 132.619 15.0706 132.271 14.7551C131.93 14.4396 131.405 14.2013 130.697 14.0403L128.186 13.4898C126.801 13.1742 125.777 12.672 125.114 11.983C124.457 11.2939 124.129 10.4214 124.129 9.36534C124.129 8.48958 124.373 7.72329 124.863 7.06648C125.352 6.40966 126.028 5.89773 126.891 5.53068C127.754 5.1572 128.743 4.97045 129.857 4.97045C131.46 4.97045 132.722 5.31818 133.643 6.01364C134.564 6.70265 135.172 7.6267 135.468 8.78579Z" fill="#FFF45A"/>
</svg>
