<svg width="40" height="40" viewBox="0 0 40 40" fill="none" xmlns="http://www.w3.org/2000/svg">
<path d="M16.6666 20L23.3333 26.6667M23.3333 20L16.6666 26.6667M6.66663 10H33.3333M26.6666 10L26.2156 8.64678C25.7785 7.33542 25.5598 6.67973 25.1545 6.19497C24.7965 5.76688 24.3368 5.43553 23.8175 5.2313C23.2293 5 22.5383 5 21.156 5H18.844C17.4616 5 16.7706 5 16.1825 5.2313C15.6632 5.43553 15.2034 5.76688 14.8454 6.19497C14.44 6.67973 14.2215 7.33542 13.7844 8.64678L13.3333 10M30 10V27C30 29.8003 30 31.2003 29.455 32.27C28.9756 33.2108 28.2108 33.9757 27.27 34.455C26.2003 35 24.8003 35 22 35H18C15.1997 35 13.7996 35 12.73 34.455C11.7892 33.9757 11.0243 33.2108 10.5449 32.27C9.99996 31.2003 9.99996 29.8003 9.99996 27V10" stroke="white" stroke-width="1.67" stroke-linecap="round" stroke-linejoin="round"/>
</svg>
