<svg width="39" height="39" viewBox="0 0 39 39" fill="none" xmlns="http://www.w3.org/2000/svg">
<rect width="39" height="39" rx="19.5" fill="#D9D9D9"/>
<path d="M20 16.5C22.7614 16.5 25 14.2614 25 11.5C25 8.73858 22.7614 6.5 20 6.5C17.2386 6.5 15 8.73858 15 11.5C15 14.2614 17.2386 16.5 20 16.5Z" stroke="#505050"/>
<path d="M29.9969 26.5C30 26.2948 30 26.0863 30 25.875C30 22.7684 25.5229 20.25 20 20.25C14.4772 20.25 10 22.7684 10 25.875C10 28.9816 10 31.5 20 31.5C22.7888 31.5 24.7998 31.3041 26.25 30.9543" stroke="#505050" stroke-linecap="round"/>
</svg>
